:FULLY-SPECIFIED
:FORCE-ALL-JOINTS-BE-3DOF
:DEGREES
2344
root 1.55935 14.3643 -18.3291 920.785 -57.2155 168.104
lfemur -27.6444 0.387952 1.56722
ltibia 39.5096 0 0
lfoot 0.181769 17.1299 0
ltoes -35.4894 0 0
rfemur -62.6313 -4.87162 9.46949
rtibia 76.843 0 0
rfoot -11.2417 -15.8634 0
rtoes 5.68353 0 0
lowerback 20.8908 3.67318 -3.95601
upperback 0.390269 3.63719 -1.0185
thorax -11.4958 1.82387 0.025725
lowerneck -5.30259 -2.04716 -4.23819
upperneck 1.80819 -2.46358 -0.212955
head 1.5109 -1.27851 0.576845
lclavicle -2.92213e-14 -5.56597e-15 0
lhumerus -35.6715 -18.2108 83.6006
lradius 103.633 0 0
lwrist 61.653 0 0
lhand -22.6898 399.458 0
lfingers 7.12502 0 0
lthumb 3.74265 -650.595 0
rclavicle -2.92213e-14 -5.56597e-15 0
rhumerus 49.9558 11.1027 -44.7855
rradius 45.9252 0 0
rwrist 4.45733 0 0
rhand -7.38306 -400.651 0
rfingers 7.12502 0 0
rthumb 18.5024 290.209 0
2345
root 1.69536 14.4422 -18.51 922.398 -60.322 166.81
lfemur -30.48 0.296261 2.02213
ltibia 41.2868 0 0
lfoot 0.995269 16.4984 0
ltoes -33.8297 0 0
rfemur -62.2882 -4.21376 9.25753
rtibia 76.7965 0 0
rfoot -11.7769 -16.1998 0
rtoes 5.30247 0 0
lowerback 21.0459 3.59166 -3.7812
upperback 0.416447 3.56553 -1.02336
thorax -11.5381 1.78087 -0.0635514
lowerneck -5.57499 -1.62496 -4.23017
upperneck 2.24731 -1.87732 -0.216943
head 1.68879 -0.991453 0.590228
lclavicle 4.53229e-14 -2.38542e-14 0
lhumerus -32.8448 -19.4113 82.7052
lradius 104.18 0 0
lwrist 62.1326 0 0
lhand -22.7643 399.34 0
lfingers 7.12502 0 0
lthumb 3.67076 -650.712 0
rclavicle 4.53229e-14 -2.38542e-14 0
rhumerus 48.785 11.8973 -44.3257
rradius 47.3899 0 0
rwrist 3.94807 0 0
rhand -7.3951 -401.276 0
rfingers 7.12502 0 0
rthumb 18.4908 289.583 0
2346
root 1.82913 14.5176 -18.7003 924.1 -63.7196 165.561
lfemur -33.1619 0.209536 2.45241
ltibia 43.1553 0 0
lfoot 1.60589 16.0245 0
ltoes -32.1932 0 0
rfemur -61.9857 -3.63346 9.07057
rtibia 76.7803 0 0
rfoot -12.3611 -16.567 0
rtoes 4.88147 0 0
lowerback 21.1488 3.44163 -3.42146
upperback 0.395323 3.47369 -0.890133
thorax -11.6018 1.7261 -0.0972185
lowerneck -5.69656 -1.22645 -3.87397
upperneck 2.51125 -1.34528 -0.644968
head 1.7762 -0.736716 0.411236
lclavicle 9.54166e-15 -5.56597e-15 0
lhumerus -29.8317 -20.7872 81.9467
lradius 104.765 0 0
lwrist 62.33 0 0
lhand -22.4268 398.82 0
lfingers 7.12502 0 0
lthumb 3.99665 -651.238 0
rclavicle 9.54166e-15 -5.56597e-15 0
rhumerus 47.4628 12.8042 -43.8047
rradius 49.0521 0 0
rwrist 3.68122 0 0
rhand -7.14575 -401.59 0
rfingers 7.12502 0 0
rthumb 18.7306 289.292 0
2347
root 1.95751 14.5872 -18.8996 926.548 -67.1653 163.544
lfemur -35.6562 0.128881 2.85256
ltibia 45.0969 0 0
lfoot 1.98977 15.7265 0
ltoes -30.6028 0 0
rfemur -61.728 -3.13934 8.91137
rtibia 76.775 0 0
rfoot -12.9853 -16.9593 0
rtoes 4.42553 0 0
lowerback 21.2516 3.32828 -3.15101
upperback 0.327563 3.40334 -0.807588
thorax -11.7224 1.68504 -0.145228
lowerneck -5.58657 -0.860911 -3.62673
upperneck 2.60906 -0.869136 -0.856863
head 1.77656 -0.502227 0.318361
lclavicle 9.14409e-15 0 0
lhumerus -26.5869 -22.5067 81.2518
lradius 105.267 0 0
lwrist 61.9699 0 0
lhand -22.8072 398.396 0
lfingers 7.12502 0 0
lthumb 3.6293 -651.655 0
rclavicle 9.14409e-15 0 0
rhumerus 45.8637 13.7193 -43.3516
rradius 50.819 0 0
rwrist 3.47126 0 0
rhand -7.04236 -401.999 0
rfingers 7.12502 0 0
rthumb 18.8301 288.892 0
2348
root 2.07308 14.6507 -19.1108 929.192 -70.8389 161.257
lfemur -37.9287 0.0553991 3.21713
ltibia 47.0932 0 0
lfoot 2.12303 15.6231 0
ltoes -29.0818 0 0
rfemur -61.5198 -2.74002 8.78271
rtibia 76.7597 0 0
rfoot -13.6407 -17.3713 0
rtoes 3.93963 0 0
lowerback 21.3054 3.1323 -2.70395
upperback 0.312803 3.28829 -0.58056
thorax -11.7529 1.61762 -0.113811
lowerneck -6.16354 -0.45236 -3.39439
upperneck 3.32144 -0.288746 -1.147
head 2.10363 -0.230613 0.206719
lclavicle 1.35174e-14 5.56597e-15 0
lhumerus -23.0802 -24.1518 80.5161
lradius 105.831 0 0
lwrist 61.4339 0 0
lhand -22.8694 398.289 0
lfingers 7.12502 0 0
lthumb 3.56921 -651.761 0
rclavicle 1.35174e-14 5.56597e-15 0
rhumerus 44.2872 14.758 -42.8504
rradius 52.7081 0 0
rwrist 3.12259 0 0
rhand -6.6543 -402.448 0
rfingers 7.12502 0 0
rthumb 19.2033 288.48 0
2349
root 2.17368 14.7155 -19.3238 933.81 -74.5584 156.862
lfemur -39.9451 -0.00980553 3.54063
ltibia 49.1261 0 0
lfoot 2.08612 15.6346 0
ltoes -27.6532 0 0
rfemur -61.3655 -2.44413 8.68738
rtibia 76.7352 0 0
rfoot -14.3184 -17.7972 0
rtoes 3.42878 0 0
lowerback 21.4255 2.89459 -2.30684
upperback 0.28199 3.09443 -0.423008
thorax -11.8368 1.51305 -0.110138
lowerneck -6.24781 0.0268828 -3.01741
upperneck 3.53584 0.349286 -1.58187
head 2.18233 0.0760948 0.0283262
lclavicle 1.70955e-14 -1.59028e-14 0
lhumerus -19.4059 -26.0373 79.615
lradius 106.496 0 0
lwrist 60.6791 0 0
lhand -22.553 398.154 0
lfingers 7.12502 0 0
lthumb 3.87474 -651.902 0
rclavicle 1.70955e-14 -1.59028e-14 0
rhumerus 42.5405 15.8986 -42.4211
rradius 54.6639 0 0
rwrist 2.35777 0 0
rhand -6.308 -402.566 0
rfingers 7.12502 0 0
rthumb 19.5363 288.395 0
2350
root 2.26218 14.7656 -19.5407 940.879 -78.3429 150.029
lfemur -41.6715 -0.0656295 3.81759
ltibia 51.1772 0 0
lfoot 1.97978 15.6676 0
ltoes -26.3401 0 0
rfemur -61.2697 -2.26027 8.62814
rtibia 76.7023 0 0
rfoot -15.0095 -18.2316 0
rtoes 2.89795 0 0
lowerback 21.5332 2.69755 -1.69566
upperback 0.168986 3.01046 -0.279397
thorax -11.9988 1.4475 -0.280057
lowerneck -6.09279 0.462568 -2.38096
upperneck 3.6783 0.902481 -2.08788
head 2.20188 0.345081 -0.220397
lclavicle 1.35174e-14 3.97569e-15 0
lhumerus -15.5989 -28.2958 78.8343
lradius 107.142 0 0
lwrist 59.4745 0 0
lhand -21.9074 398.196 0
lfingers 7.12502 0 0
lthumb 4.4982 -651.871 0
rclavicle 1.35174e-14 3.97569e-15 0
rhumerus 40.3592 16.9921 -42.1644
rradius 56.6529 0 0
rwrist 1.25308 0 0
rhand -6.03402 -402.661 0
rfingers 7.12502 0 0
rthumb 19.7996 288.327 0
2351
root 2.33978 14.808 -19.7622 955.072 -81.8463 135.99
lfemur -43.0736 -0.110969 4.04254
ltibia 53.2283 0 0
lfoot 1.81063 15.7202 0
ltoes -25.1657 0 0
rfemur -61.2367 -2.19707 8.60778
rtibia 76.6619 0 0
rfoot -15.705 -18.6687 0
rtoes 2.35215 0 0
lowerback 21.5173 2.4058 -1.42084
upperback 0.177438 2.74777 0.107043
thorax -11.9829 1.32625 0.077509
lowerneck -6.22501 1.05482 -2.19331
upperneck 3.85102 1.71013 -2.5498
head 2.28917 0.731805 -0.367995
lclavicle -8.34896e-15 1.59028e-14 0
lhumerus -11.5649 -30.0482 78.2195
lradius 107.738 0 0
lwrist 58.1048 0 0
lhand -21.5324 397.916 0
lfingers 7.12502 0 0
lthumb 4.86032 -652.16 0
rclavicle -8.34896e-15 1.59028e-14 0
rhumerus 38.7274 18.4237 -41.6647
rradius 58.6072 0 0
rwrist -0.0101751 0 0
rhand -5.84824 -402.662 0
rfingers 7.12502 0 0
rthumb 19.9782 288.345 0
2352
root 2.39984 14.8469 -19.9837 984.35 -84.1744 106.689
lfemur -44.1174 -0.144721 4.21
ltibia 55.2612 0 0
lfoot 1.58528 15.7902 0
ltoes -24.1529 0 0
rfemur -61.1843 -2.1791 8.65318
rtibia 76.6148 0 0
rfoot -16.396 -19.1031 0
rtoes 1.79637 0 0
lowerback 21.5719 2.14054 -1.0433
upperback 0.190975 2.52372 0.342923
thorax -11.988 1.21006 0.194145
lowerneck -6.29186 1.62397 -1.8481
upperneck 4.06633 2.47321 -2.96545
head 2.3866 1.09995 -0.528982
lclavicle 2.38542e-15 -1.35174e-14 0
lhumerus -7.41969 -32.1711 77.2853
lradius 108.488 0 0
lwrist 57.0402 0 0
lhand -22.5263 397.8 0
lfingers 7.12502 0 0
lthumb 3.90054 -652.256 0
rclavicle 2.38542e-15 -1.35174e-14 0
rhumerus 36.8339 19.7962 -41.5503
rradius 60.4918 0 0
rwrist -1.05264 0 0
rhand -5.42283 -402.39 0
rfingers 7.12502 0 0
rthumb 20.3871 288.66 0
